<svg id="_797e9dad-49b8-4c22-ab03-ee4ba900a3df" data-name="797e9dad-49b8-4c22-ab03-ee4ba900a3df" xmlns="http://www.w3.org/2000/svg" width="46.133" height="51.259" viewBox="0 0 46.133 51.259">
  <path id="Path_12365" data-name="Path 12365" d="M30.656,300a7.689,7.689,0,0,0-7.689,7.689v35.882a7.689,7.689,0,0,0,7.689,7.689H61.411a7.689,7.689,0,0,0,7.689-7.689V307.689A7.689,7.689,0,0,0,61.411,300Zm-2.563,7.689a2.563,2.563,0,0,1,2.563-2.563H61.411a2.563,2.563,0,0,1,2.563,2.563v35.882a2.563,2.563,0,0,1-2.563,2.563H30.656a2.563,2.563,0,0,1-2.563-2.563Zm7.689,5.126a2.563,2.563,0,1,0,0,5.126h20.5a2.563,2.563,0,1,0,0-5.126Zm0,10.252a2.563,2.563,0,1,0,0,5.126h20.5a2.563,2.563,0,1,0,0-5.126Zm-2.563,12.815a2.563,2.563,0,0,1,2.563-2.563H46.034a2.563,2.563,0,1,1,0,5.126H35.782A2.563,2.563,0,0,1,33.219,335.882Z" transform="translate(-22.967 -300)" fill="#c10e21"/>
</svg>
