<svg xmlns="http://www.w3.org/2000/svg" xmlns:xlink="http://www.w3.org/1999/xlink" width="478" height="227.275" viewBox="0 0 478 227.275">
  <defs>
    <filter id="PLANNING_POKER" x="0" y="0" width="478" height="222" filterUnits="userSpaceOnUse">
      <feOffset dy="3" input="SourceAlpha"/>
      <feGaussianBlur stdDeviation="3" result="blur"/>
      <feFlood flood-opacity="0.38"/>
      <feComposite operator="in" in2="blur"/>
      <feComposite in="SourceGraphic"/>
    </filter>
  </defs>
  <g id="Group_58173" data-name="Group 58173" transform="translate(-40 -219.862)">
    <g transform="matrix(1, 0, 0, 1, 40, 219.86)" filter="url(#PLANNING_POKER)">
      <text id="PLANNING_POKER-2" data-name="PLANNING POKER" transform="translate(11 8)" fill="#c10e21" stroke="#fff" stroke-linecap="square" stroke-linejoin="round" stroke-width="2" font-size="76" font-family="PhoreusCherokee-Bold, Phoreus Cherokee" font-weight="700"><tspan x="0" y="74">PLANNING </tspan><tspan x="0" y="182">POKER</tspan></text>
    </g>
    <g id="Group_58169" data-name="Group 58169" transform="translate(-1014.529 -590.795)">
      <g id="Group_58164" data-name="Group 58164" transform="translate(1372.896 992.952)" opacity="0.1">
        <g id="Group_58163" data-name="Group 58163" transform="translate(0 0)">
          <path id="Path_12330" data-name="Path 12330" d="M1513.023,1750.671c-15.213-8.783-39.8-8.783-54.91,0s-15.034,23.023.179,31.806,39.8,8.783,54.91,0,15.034-23.023-.179-31.806Z" transform="translate(-1446.83 -1744.084)" fill="#030504"/>
        </g>
      </g>
      <g id="Group_58166" data-name="Group 58166" transform="translate(1437.146 958.063)" opacity="0.1">
        <g id="Group_58165" data-name="Group 58165" transform="translate(0 0)">
          <path id="Path_12331" data-name="Path 12331" d="M2099.493,1432.207c-15.213-8.783-39.8-8.783-54.91,0s-15.034,23.023.179,31.806,39.8,8.783,54.91,0,15.034-23.023-.179-31.806Z" transform="translate(-2033.3 -1425.62)" fill="#030504"/>
        </g>
      </g>
      <g id="Group_58167" data-name="Group 58167" transform="translate(1432.072 900.539)">
        <path id="Path_12332" data-name="Path 12332" d="M2346.606,1327.787c-1.884,11.661-22.323,26.52-25.948,30.127-3.366,3.33-21.8,10.385-31.984,9.983,2.929-2.616,8.858-8.733,20.519-23.046l9.563-6.6Z" transform="translate(-2255.623 -1280.981)" fill="#efefef"/>
        <path id="Path_12333" data-name="Path 12333" d="M2318.055,945.229c-6.322,3.072-24.055,9.045-24.055,9.045s-6.072,2.331-13.054-3.411c0,0-17.028-25.528-21.582-31.654-2.241-3.009-2.848-8.1-2.884-12.5,9.581-3.6,25.957-8.947,31.958-4.456C2295.581,907.584,2317.395,932.818,2318.055,945.229Z" transform="translate(-2226.956 -900.539)" fill="#f2f2f3"/>
        <path id="Path_12334" data-name="Path 12334" d="M2038.7,1066.481l-12.6,14.992a47.188,47.188,0,0,1-8.884,8.527c-9.126-2.205-18.555-11.385-29.529-39.092,0,0-3.58-7.518,5.447-19.555,4.233-5.644,7.831-11.313,11.724-15.242,3.464.732,9.554,2.652,13.492,7.527,5.75,7.125,20.01,28.645,20.948,31.02S2040.538,1064.294,2038.7,1066.481Z" transform="translate(-1986.985 -1003.451)" fill="#fff"/>
        <path id="Path_12335" data-name="Path 12335" d="M2223.307,996.913c-.018.2-.044.384-.081.58l-27.85,10.465-9.563,6.6c-11.661,14.313-17.59,20.43-20.519,23.046a14.119,14.119,0,0,1-2.759-.348c-.018-.009-.044-.009-.062-.018a47.179,47.179,0,0,0,8.884-8.527l12.6-14.992c1.839-2.187,1.536-9.447.6-11.822s-15.2-23.894-20.948-31.02c-3.938-4.875-10.028-6.795-13.492-7.527a18.184,18.184,0,0,1,6.179-4.366c1.277-.5,3.179-1.268,5.474-2.125.036,4.4.643,9.492,2.884,12.5,4.554,6.126,21.582,31.654,21.582,31.654,6.982,5.742,13.054,3.411,13.054,3.411s17.733-5.974,24.055-9.045A9.63,9.63,0,0,1,2223.307,996.913Z" transform="translate(-2132.244 -950.687)" fill="#fff"/>
        <path id="Path_12336" data-name="Path 12336" d="M2223.307,996.913c-.018.2-.044.384-.081.58l-27.85,10.465-9.563,6.6c-11.661,14.313-17.59,20.43-20.519,23.046a14.119,14.119,0,0,1-2.759-.348c-.018-.009-.044-.009-.062-.018a47.179,47.179,0,0,0,8.884-8.527l12.6-14.992c1.839-2.187,1.536-9.447.6-11.822s-15.2-23.894-20.948-31.02c-3.938-4.875-10.028-6.795-13.492-7.527a18.184,18.184,0,0,1,6.179-4.366c1.277-.5,3.179-1.268,5.474-2.125.036,4.4.643,9.492,2.884,12.5,4.554,6.126,21.582,31.654,21.582,31.654,6.982,5.742,13.054,3.411,13.054,3.411s17.733-5.974,24.055-9.045A9.63,9.63,0,0,1,2223.307,996.913Z" transform="translate(-2132.244 -950.687)" fill="#e5e5e5"/>
        <path id="Path_12337" data-name="Path 12337" d="M2031.927,1262.547c-1.448-2.734-1.34-5.206-.115-6.631s4.5-.843,5.476.694c1.479,2.328,1.576,5.209.045,6.871S2032.808,1264.209,2031.927,1262.547Z" transform="translate(-2026.06 -1216.258)" fill="#353534"/>
        <path id="Path_12338" data-name="Path 12338" d="M2151.159,1118.935c-1.448-2.734-1.34-5.206-.115-6.631s4.5-.843,5.476.694c1.479,2.327,1.576,5.209.045,6.871S2152.039,1120.6,2151.159,1118.935Z" transform="translate(-2132.229 -1088.379)" fill="#353534"/>
        <path id="Path_12339" data-name="Path 12339" d="M2106.247,1387.213c-1.448-2.734-1.34-5.206-.115-6.631s4.5-.843,5.476.694c1.479,2.327,1.576,5.209.045,6.871S2107.128,1388.875,2106.247,1387.213Z" transform="translate(-2092.238 -1327.267)" fill="#353534"/>
        <path id="Path_12340" data-name="Path 12340" d="M2225.479,1243.6c-1.448-2.734-1.341-5.206-.115-6.631s4.5-.843,5.476.694c1.479,2.327,1.576,5.209.045,6.871S2226.36,1245.263,2225.479,1243.6Z" transform="translate(-2198.407 -1199.388)" fill="#353534"/>
        <path id="Path_12341" data-name="Path 12341" d="M2200.425,1525.065c-1.448-2.734-1.341-5.206-.115-6.631s4.5-.843,5.475.694c1.479,2.328,1.577,5.209.045,6.871S2201.305,1526.727,2200.425,1525.065Z" transform="translate(-2176.097 -1450.016)" fill="#353534"/>
        <path id="Path_12342" data-name="Path 12342" d="M2319.656,1381.453c-1.448-2.734-1.34-5.206-.115-6.631s4.5-.843,5.476.694c1.479,2.327,1.576,5.209.045,6.871S2320.536,1383.115,2319.656,1381.453Z" transform="translate(-2282.267 -1322.138)" fill="#353534"/>
        <path id="Path_12343" data-name="Path 12343" d="M2509.428,1503.875c3.542-3.169,5.562-4.61,7.817-3.458s-.7,4.676-1.448,5.378-3.863,3.04-6.118,2.289S2508.269,1504.912,2509.428,1503.875Z" transform="translate(-2451.156 -1434.348)" fill="#353534"/>
        <path id="Path_12344" data-name="Path 12344" d="M2490.881,1085.845c6.086-1.882,9.937,6.7,5.906,7.939C2490.716,1095.645,2485.49,1087.512,2490.881,1085.845Z" transform="translate(-2433.674 -1065.305)" fill="#353534"/>
        <path id="Path_12345" data-name="Path 12345" d="M2496.662,1239.938c6.086-1.882,9.937,6.7,5.906,7.939C2496.5,1249.739,2491.272,1241.6,2496.662,1239.938Z" transform="translate(-2438.822 -1202.517)" fill="#353534"/>
        <path id="Path_12346" data-name="Path 12346" d="M2490.881,957.111c6.086-1.882,9.937,6.7,5.906,7.939C2490.716,966.911,2485.49,958.778,2490.881,957.111Z" transform="translate(-2433.674 -950.674)" fill="#353534"/>
      </g>
      <g id="Group_58168" data-name="Group 58168" transform="translate(1363.8 922.929)">
        <path id="Path_12347" data-name="Path 12347" d="M1803.483,1163.506c-8.91-1.077-24.528-11.6-28.711-14.195-5.216-3.23-6.918-6.373-8.632-10.853s-8.3-22.858-9.647-27.913a7.038,7.038,0,0,1,.544-4.963c12.666,1.25,33.074,18.644,35.957,23.891C1795.686,1134.4,1803.043,1152.987,1803.483,1163.506Z" transform="translate(-1713.267 -1105.51)" fill="#d40147"/>
        <path id="Path_12348" data-name="Path 12348" d="M1588.961,1553.411c-6.6,8.861-31.013,26.818-38.172,26.836-6.454.012-24.182-10.581-33.2-17.443,4.233-6.924,13.885-13.2,13.885-13.2,23.142-16.763,21.205-18.124,42.188-8.025C1583.194,1546.165,1587.309,1550.287,1588.961,1553.411Z" transform="translate(-1500.737 -1488.07)" fill="#c90542"/>
        <path id="Path_12349" data-name="Path 12349" d="M1453.347,1168.111a11.44,11.44,0,0,1-1.324,2.147c-1.652-3.125-5.767-7.246-15.3-11.831-20.982-10.1-19.046-8.737-42.188,8.025,0,0-9.653,6.275-13.885,13.2a39.924,39.924,0,0,1-4.325-3.676,13.3,13.3,0,0,1-1.6-2.1c-5.148-7.939-9.746-25.172-10.866-35.617A8.9,8.9,0,0,1,1366.5,1131c2.945-2.964,20.147-18.576,32.38-23.984a43.048,43.048,0,0,1,4.294-1.671,10.807,10.807,0,0,1,4.393-.359,7.038,7.038,0,0,0-.544,4.962c1.343,5.055,7.939,23.433,9.647,27.913s3.416,7.623,8.632,10.853c4.183,2.6,19.8,13.118,28.711,14.195A12,12,0,0,1,1453.347,1168.111Z" transform="translate(-1363.8 -1104.917)" fill="#e5054a"/>
        <path id="Path_12350" data-name="Path 12350" d="M1542.1,1168.111a11.441,11.441,0,0,1-1.324,2.147c-1.652-3.125-5.767-7.246-15.3-11.831-20.983-10.1-19.046-8.737-42.188,8.025,0,0-9.653,6.275-13.885,13.2a39.9,39.9,0,0,1-4.325-3.676,13.29,13.29,0,0,1-1.6-2.1,8.649,8.649,0,0,0,7.2-1.206c5.161-3.422,30.45-21.261,31.094-22.7a22.5,22.5,0,0,0,1.281-10.531c-.489-5.229-8.681-26.119-9.634-28.9-.427-1.225-3.02-2.494-5.779-3.527a43.035,43.035,0,0,1,4.294-1.671,10.807,10.807,0,0,1,4.393-.359,7.038,7.038,0,0,0-.545,4.962c1.343,5.055,7.939,23.433,9.647,27.913s3.416,7.623,8.632,10.853c4.183,2.6,19.8,13.118,28.711,14.195A12,12,0,0,1,1542.1,1168.111Z" transform="translate(-1452.555 -1104.917)" fill="#e74977"/>
        <path id="Path_12351" data-name="Path 12351" d="M1418.473,1363.911c-1.756-2.672-.325-5.06,1.16-6.453a3.771,3.771,0,0,1,5.339.65,4.979,4.979,0,0,1-.975,6.081C1422.14,1365.815,1419.541,1365.536,1418.473,1363.911Z" transform="translate(-1411.762 -1329.055)" fill="#e5e5e5"/>
        <path id="Path_12352" data-name="Path 12352" d="M1621.339,1221.524c-1.756-2.672-.325-5.06,1.161-6.453a3.771,3.771,0,0,1,5.339.65,4.979,4.979,0,0,1-.975,6.081C1625.007,1223.427,1622.407,1223.149,1621.339,1221.524Z" transform="translate(-1592.404 -1202.266)" fill="#e5e5e5"/>
        <path id="Path_12353" data-name="Path 12353" d="M1693.833,1429.348c-1.756-2.672-.325-5.06,1.161-6.453a3.771,3.771,0,0,1,5.339.65,4.979,4.979,0,0,1-.975,6.082C1697.5,1431.252,1694.9,1430.973,1693.833,1429.348Z" transform="translate(-1656.956 -1387.323)" fill="#e5e5e5"/>
        <path id="Path_12354" data-name="Path 12354" d="M1479.717,1572.5c-1.756-2.672-.325-5.06,1.161-6.453a3.771,3.771,0,0,1,5.339.65,4.979,4.979,0,0,1-.975,6.081C1483.384,1574.4,1480.784,1574.121,1479.717,1572.5Z" transform="translate(-1466.297 -1514.788)" fill="#e5e5e5"/>
        <path id="Path_12355" data-name="Path 12355" d="M1785.626,1707.031c1.724-1.82,5.342-1.739,6.708-.869s2.174,3.851,0,5.093a6.019,6.019,0,0,1-6.211,0A2.582,2.582,0,0,1,1785.626,1707.031Z" transform="translate(-1738.638 -1639.762)" fill="#e5e5e5"/>
        <path id="Path_12356" data-name="Path 12356" d="M1837.652,1202.278a5.641,5.641,0,0,1,3.292,3.909c.412,1.4.082,2.3-1.44,2.181s-3.539-2.263-4.033-3.58S1835.06,1201.331,1837.652,1202.278Z" transform="translate(-1783.587 -1191.403)" fill="#e5e5e5"/>
        <path id="Path_12357" data-name="Path 12357" d="M2022.118,1310.77a5.641,5.641,0,0,1,3.292,3.91c.412,1.4.082,2.3-1.44,2.181s-3.539-2.263-4.033-3.58S2019.525,1309.824,2022.118,1310.77Z" transform="translate(-1947.844 -1288.01)" fill="#e5e5e5"/>
        <path id="Path_12358" data-name="Path 12358" d="M1903.081,1403.482a5.641,5.641,0,0,1,3.292,3.909c.412,1.4.082,2.3-1.44,2.181s-3.539-2.264-4.033-3.58S1900.488,1402.535,1903.081,1403.482Z" transform="translate(-1841.847 -1370.564)" fill="#e5e5e5"/>
        <path id="Path_12359" data-name="Path 12359" d="M2087.545,1511.974a5.64,5.64,0,0,1,3.292,3.909c.412,1.4.083,2.3-1.44,2.181s-3.539-2.264-4.033-3.58S2084.953,1511.027,2087.545,1511.974Z" transform="translate(-2006.104 -1467.171)" fill="#e5e5e5"/>
        <path id="Path_12360" data-name="Path 12360" d="M1962.6,1354.248a5.641,5.641,0,0,1,3.292,3.91c.411,1.4.082,2.3-1.44,2.181s-3.539-2.263-4.033-3.58S1960.007,1353.3,1962.6,1354.248Z" transform="translate(-1894.846 -1326.725)" fill="#e5e5e5"/>
      </g>
    </g>
  </g>
</svg>
